<svg width="200" height="144" viewBox="0 0 200 144" fill="none" xmlns="http://www.w3.org/2000/svg">
<path d="M191.517 60.4914C192.164 60.4914 192.543 60.5776 192.543 61.1379C192.526 61.5345 192.267 61.6896 191.759 61.6983H190.371L190.379 60.4828H191.517V60.4914ZM190.379 62.5948H191.172L192.25 64.5517L193.534 64.5431L192.362 62.4741C193.19 62.4052 193.672 62.0431 193.672 61.1121C193.672 60 193.034 59.6207 192.017 59.5862L189.233 59.5948V64.5517L190.371 64.5431L190.379 62.5948ZM191.328 58.5862C193.397 58.5862 194.81 59.9483 194.819 61.9914C194.819 64.0603 193.397 65.5172 191.345 65.5172C189.284 65.5259 187.922 64.1121 187.914 62.0603C187.905 60 189.259 58.5862 191.328 58.5862ZM191.353 57.4741C188.103 57.4828 186.75 59.9396 186.75 62.069C186.767 64.2414 188.138 66.6379 191.362 66.6379C194.121 66.6293 195.966 64.5603 195.966 62.0517C195.957 59.6638 194.362 57.4655 191.353 57.4741Z" fill="#153350"/>
<path d="M44.7931 68.0603L50.1207 68.0517L50.1724 93.2328L44.819 93.25L44.7931 68.0603Z" fill="#153350"/>
<path d="M44.7844 57.819L50.112 57.8103L50.1293 65.7845L44.7844 65.7931V57.819Z" fill="#153350"/>
<path d="M167.716 57.6465L173.043 57.6379L173.104 93.0603L167.741 93.069L167.716 57.6465Z" fill="#153350"/>
<path d="M182.116 57.6248L176.789 57.634L176.85 93.0564L182.177 93.0472L182.116 57.6248Z" fill="#153350"/>
<path d="M30.6983 78.0862C32.5603 78.0862 34.069 76.8103 34.0345 74.9828C34.0345 73.1552 32.5431 71.8879 30.681 71.8966L9.20689 71.931V78.1466L30.6983 78.0862ZM31.5345 89.4741C33.6983 89.4741 35.4741 87.9397 35.4741 85.7845C35.4741 83.6379 33.681 81.8793 31.5086 81.8879L9.20689 81.9224V89.5259L31.5345 89.4741ZM3.86206 68.1121L33.4828 68.0776C38.4396 68.069 39.8534 71.9828 39.7759 74.3362C39.6896 76.681 38.75 78.819 37.4052 79.4655C39.8534 80.6121 41.4224 83.5862 41.3793 86.0603C41.1638 92.75 34.681 93.2672 31.9396 93.2672L3.91378 93.3017L3.86206 68.1121Z" fill="#153350"/>
<path d="M138.974 67.931C137.026 67.931 132.371 68.9483 132.293 73.3448C132.215 77.1207 134.241 78.8276 135.526 79.25C133.871 79.9483 132.362 82.8707 132.371 85.431C132.371 87.9914 133.328 93.1121 141.664 93.1035L164.457 93.0776L164.44 89.3017L142.284 89.319C140.103 89.3276 138.328 87.8017 138.336 85.6379C138.31 83.4914 140.086 81.7414 142.284 81.7414L163.284 81.7069L163.267 77.9224L141.759 77.9569C139.888 77.9655 138.379 76.6638 138.379 74.8276C138.345 72.9741 139.879 71.6897 141.75 71.6897L164.422 71.6552L164.431 67.8879L138.974 67.931Z" fill="#153350"/>
<path d="M122.759 75.8535L128.181 75.8448C128.172 69.6466 125.353 67.8707 117.707 67.9569L102.94 67.9741C99.6207 67.9741 93.8017 69.4828 93.7931 74.6035C93.8103 79.7242 95.7586 81.7931 101.741 81.7845L119.397 81.7586C121.405 81.75 123.483 83.0259 123.491 85.3793C123.5 87.7242 122.293 89.431 118.595 89.3707L104.698 89.3879C102.888 89.3879 99.1379 89.181 99.1379 85.2586L93.8017 85.2673C93.8189 88.3362 94.4483 93.1638 102.595 93.1552L120.052 93.1293C123.5 93.1293 129.103 91.4828 129.103 85.1552C129.095 78.8276 123.828 77.9655 120.871 77.9741L103.233 78C100.353 78 99.4138 76.2242 99.4138 74.8793C99.4138 73.5173 100.345 71.7586 103.233 71.75L118.578 71.7241C121.112 71.7328 122.759 72.7241 122.759 75.8535Z" fill="#153350"/>
<path d="M84.6466 75.8535L90.069 75.8448C90.0603 69.6466 87.2414 67.8707 79.5948 67.9569L64.8276 67.9741C61.5086 67.9741 55.6897 69.4828 55.681 74.6035C55.6983 79.7242 57.6465 81.7931 63.6293 81.7845L81.2845 81.7586C83.2931 81.75 85.3793 83.0259 85.3793 85.3793C85.3879 87.7242 84.181 89.431 80.4828 89.3707L66.5948 89.3879C64.7845 89.3879 61.0345 89.181 61.0345 85.2586L55.6983 85.2673C55.7155 88.3362 56.3448 93.1638 64.4914 93.1552L81.9483 93.1293C85.3965 93.1293 91 91.4828 91 85.1552C90.9914 78.8276 85.7241 77.9655 82.7672 77.9741L65.1207 78C62.2414 78 61.3017 76.2242 61.3017 74.8793C61.3017 73.5173 62.2241 71.7586 65.1207 71.75L80.4655 71.7241C83 71.7328 84.6466 72.7241 84.6466 75.8535Z" fill="#153350"/>
<path d="M166.233 138.328C174.552 138.31 171.216 130.457 169.724 127.81C167.491 123.957 155.991 103.345 155.991 103.345L31.9827 103.526C31.9827 103.526 20.5 124.172 18.3017 128.034C16.8017 130.681 13.431 138.319 21.7328 138.31L166.233 138.328Z" fill="#153350"/>
<path d="M55.3966 58.0172L130.595 58C130.595 58 111.75 23.4052 107.241 15.4483C103.155 8.19828 100.672 4.68103 92.7328 4.69827C84.8018 4.7069 82.5863 8.23276 78.3794 15.6724C74.2759 22.9483 55.3966 58.0172 55.3966 58.0172Z" fill="#153350"/>
</svg>
