<svg width="200" height="100" viewBox="0 0 200 100" fill="none" xmlns="http://www.w3.org/2000/svg">
<path d="M68.912 62.3952H75.3096V87.3855H68.912V62.3952ZM126.09 69.5924C125.89 69.3925 123.891 68.1929 120.692 68.1929C116.693 68.1929 113.695 70.9918 113.695 74.7904C113.695 78.5889 116.494 81.3878 120.692 81.3878C123.691 81.3878 125.69 80.1883 126.09 79.9883V86.7857C125.29 86.9856 123.091 87.5854 120.292 87.5854C113.095 87.5854 106.897 82.7873 106.897 74.5904C106.897 67.1933 112.495 61.5955 120.292 61.5955C123.291 61.5955 125.49 62.3952 126.09 62.3952V69.5924ZM60.1155 69.5924C59.9155 69.3925 57.9163 68.1929 54.7176 68.1929C50.7191 68.1929 47.7203 70.9918 47.7203 74.7904C47.7203 78.5889 50.5192 81.3878 54.7176 81.3878C57.7164 81.3878 59.7156 80.1883 60.1155 79.9883V86.7857C59.3158 86.9856 57.1166 87.5854 54.3177 87.5854C47.3204 87.5854 40.9229 82.7873 40.9229 74.5904C40.9229 67.1933 46.5207 61.5955 54.3177 61.5955C57.3165 61.5955 59.5157 62.3952 60.1155 62.3952V69.5924ZM159.077 74.9903C159.077 82.1875 153.479 87.9852 145.882 87.9852C138.285 87.9852 132.687 82.1875 132.687 74.9903C132.687 67.7931 138.285 61.9953 145.882 61.9953C153.679 61.9953 159.077 67.7931 159.077 74.9903ZM145.882 68.3929C142.084 68.3929 139.285 71.3917 139.285 74.9903C139.285 78.5889 142.084 81.5877 145.882 81.5877C149.681 81.5877 152.48 78.5889 152.48 74.9903C152.48 71.3917 149.681 68.3929 145.882 68.3929ZM99.1003 68.1929C99.1003 68.1929 96.3014 67.3932 94.1023 67.3932C91.5033 67.3932 90.1038 68.1929 90.1038 69.3925C90.1038 70.9918 91.9031 71.3917 92.9027 71.7915L94.702 72.3913C98.7005 73.7908 100.7 76.5897 100.7 79.5885C100.7 85.7861 95.1019 87.9852 90.3037 87.9852C86.905 87.9852 83.7063 87.3855 83.5064 87.3855V81.5877C84.1061 81.7876 86.7051 82.5873 89.504 82.5873C92.7028 82.5873 94.1023 81.5877 94.1023 80.1883C94.1023 78.9887 92.9027 78.189 91.3033 77.7892C90.9035 77.5893 90.3037 77.3894 89.9039 77.3894C86.3053 76.1898 83.5064 74.1906 83.5064 69.9922C83.5064 65.394 87.105 62.1953 92.9027 62.1953C95.9016 62.1953 98.9004 62.9949 99.1003 62.9949V68.1929Z" fill="#153350"/>
<path d="M34.3255 35.6056C34.3309 35.184 34.2518 34.7657 34.093 34.3751C33.9341 33.9846 33.6987 33.6299 33.4006 33.3318C33.1025 33.0336 32.7477 32.7982 32.3572 32.6394C31.9667 32.4805 31.5483 32.4015 31.1267 32.4068C30.7052 32.4015 30.2868 32.4805 29.8963 32.6394C29.5058 32.7982 29.151 33.0336 28.8529 33.3318C28.5548 33.6299 28.3194 33.9846 28.1605 34.3751C28.0017 34.7657 27.9226 35.184 27.928 35.6056V42.203C27.9226 42.6246 28.0017 43.0429 28.1605 43.4335C28.3194 43.824 28.5548 44.1787 28.8529 44.4769C29.151 44.775 29.5058 45.0104 29.8963 45.1692C30.2868 45.3281 30.7052 45.4072 31.1267 45.4018C31.5483 45.4072 31.9667 45.3281 32.3572 45.1692C32.7477 45.0104 33.1025 44.775 33.4006 44.4769C33.6987 44.1787 33.9341 43.824 34.093 43.4335C34.2518 43.0429 34.3309 42.6246 34.3255 42.203V35.6056Z" fill="#153350"/>
<path d="M51.5188 27.0089C51.5242 26.5874 51.4451 26.169 51.2863 25.7785C51.1274 25.388 50.892 25.0332 50.5939 24.7351C50.2958 24.437 49.941 24.2016 49.5505 24.0427C49.16 23.8839 48.7416 23.8048 48.3201 23.8102C46.5208 23.8102 45.3212 25.2096 45.3212 27.0089V42.203C45.3159 42.6246 45.3949 43.0429 45.5538 43.4335C45.7126 43.824 45.9481 44.1787 46.2462 44.4769C46.5443 44.775 46.899 45.0104 47.2896 45.1692C47.6801 45.3281 48.0984 45.4072 48.52 45.4018C48.9416 45.4072 49.3599 45.3281 49.7504 45.1692C50.141 45.0104 50.4957 44.775 50.7938 44.4769C51.0919 44.1787 51.3274 43.824 51.4862 43.4335C51.6451 43.0429 51.7241 42.6246 51.7188 42.203V27.0089H51.5188ZM68.9121 15.2135C68.9174 14.792 68.8384 14.3736 68.6795 13.9831C68.5207 13.5926 68.2853 13.2378 67.9871 12.9397C67.689 12.6416 67.3343 12.4062 66.9438 12.2473C66.5532 12.0885 66.1349 12.0094 65.7133 12.0148C65.2918 12.0094 64.8734 12.0885 64.4829 12.2473C64.0924 12.4062 63.7376 12.6416 63.4395 12.9397C63.1414 13.2378 62.906 13.5926 62.7471 13.9831C62.5883 14.3736 62.5092 14.792 62.5146 15.2135V48.4006C62.5092 48.8222 62.5883 49.2405 62.7471 49.6311C62.906 50.0216 63.1414 50.3763 63.4395 50.6744C63.7376 50.9726 64.0924 51.208 64.4829 51.3668C64.8734 51.5257 65.2918 51.6047 65.7133 51.5994C66.1349 51.6047 66.5532 51.5257 66.9438 51.3668C67.3343 51.208 67.689 50.9726 67.9871 50.6744C68.2853 50.3763 68.5207 50.0216 68.6795 49.6311C68.8384 49.2405 68.9174 48.8222 68.9121 48.4006V15.2135ZM86.1054 27.0089C86.1108 26.5874 86.0317 26.169 85.8728 25.7785C85.714 25.388 85.4786 25.0332 85.1805 24.7351C84.8824 24.437 84.5276 24.2016 84.1371 24.0427C83.7466 23.8839 83.3282 23.8048 82.9066 23.8102C82.4851 23.8048 82.0667 23.8839 81.6762 24.0427C81.2857 24.2016 80.9309 24.437 80.6328 24.7351C80.3347 25.0332 80.0993 25.388 79.9404 25.7785C79.7816 26.169 79.7025 26.5874 79.7079 27.0089V42.203C79.7025 42.6246 79.7816 43.0429 79.9404 43.4335C80.0993 43.824 80.3347 44.1787 80.6328 44.4769C80.9309 44.775 81.2857 45.0104 81.6762 45.1692C82.0667 45.3281 82.4851 45.4072 82.9066 45.4018C83.3282 45.4072 83.7466 45.3281 84.1371 45.1692C84.5276 45.0104 84.8824 44.775 85.1805 44.4769C85.4786 44.1787 85.714 43.824 85.8728 43.4335C86.0317 43.0429 86.1108 42.6246 86.1054 42.203V27.0089Z" fill="#153350"/>
<path d="M103.299 35.6056C103.304 35.184 103.225 34.7657 103.066 34.3751C102.907 33.9846 102.672 33.6299 102.374 33.3318C102.076 33.0336 101.721 32.7982 101.33 32.6394C100.94 32.4805 100.522 32.4015 100.1 32.4068C99.6784 32.4015 99.26 32.4805 98.8695 32.6394C98.479 32.7982 98.1242 33.0336 97.8261 33.3318C97.528 33.6299 97.2926 33.9846 97.1337 34.3751C96.9749 34.7657 96.8958 35.184 96.9012 35.6056V42.203C96.8958 42.6246 96.9749 43.0429 97.1337 43.4335C97.2926 43.824 97.528 44.1787 97.8261 44.4769C98.1242 44.775 98.479 45.0104 98.8695 45.1692C99.26 45.3281 99.6784 45.4072 100.1 45.4018C100.522 45.4072 100.94 45.3281 101.33 45.1692C101.721 45.0104 102.076 44.775 102.374 44.4769C102.672 44.1787 102.907 43.824 103.066 43.4335C103.225 43.0429 103.304 42.6246 103.299 42.203V35.6056Z" fill="#153350"/>
<path d="M120.492 27.0089C120.492 26.1606 120.155 25.347 119.555 24.7471C118.955 24.1472 118.142 23.8102 117.293 23.8102C116.445 23.8102 115.631 24.1472 115.031 24.7471C114.431 25.347 114.094 26.1606 114.094 27.0089V42.203C114.094 43.0514 114.431 43.865 115.031 44.4649C115.631 45.0648 116.445 45.4018 117.293 45.4018C118.142 45.4018 118.955 45.0648 119.555 44.4649C120.155 43.865 120.492 43.0514 120.492 42.203V27.0089ZM137.685 15.2135C137.685 14.3651 137.348 13.5515 136.748 12.9516C136.149 12.3518 135.335 12.0148 134.487 12.0148C133.638 12.0148 132.825 12.3518 132.225 12.9516C131.625 13.5515 131.288 14.3651 131.288 15.2135V48.4006C131.288 49.249 131.625 50.0626 132.225 50.6625C132.825 51.2624 133.638 51.5994 134.487 51.5994C135.335 51.5994 136.149 51.2624 136.748 50.6625C137.348 50.0626 137.685 49.249 137.685 48.4006V15.2135ZM154.879 27.0089C154.879 26.5889 154.796 26.1729 154.635 25.7848C154.474 25.3967 154.239 25.0441 153.942 24.7471C153.645 24.45 153.292 24.2144 152.904 24.0537C152.516 23.8929 152.1 23.8102 151.68 23.8102C151.26 23.8102 150.844 23.8929 150.456 24.0537C150.068 24.2144 149.715 24.45 149.418 24.7471C149.121 25.0441 148.885 25.3967 148.725 25.7848C148.564 26.1729 148.481 26.5889 148.481 27.0089V42.203C148.481 42.6231 148.564 43.039 148.725 43.4271C148.885 43.8152 149.121 44.1679 149.418 44.4649C149.715 44.7619 150.068 44.9975 150.456 45.1583C150.844 45.319 151.26 45.4018 151.68 45.4018C152.1 45.4018 152.516 45.319 152.904 45.1583C153.292 44.9975 153.645 44.7619 153.942 44.4649C154.239 44.1679 154.474 43.8152 154.635 43.4271C154.796 43.039 154.879 42.6231 154.879 42.203V27.0089ZM172.072 35.6056C172.072 34.7572 171.735 33.9436 171.135 33.3437C170.535 32.7438 169.722 32.4068 168.873 32.4068C168.025 32.4068 167.211 32.7438 166.611 33.3437C166.011 33.9436 165.674 34.7572 165.674 35.6056V42.203C165.674 43.0514 166.011 43.865 166.611 44.4649C167.211 45.0648 168.025 45.4018 168.873 45.4018C169.722 45.4018 170.535 45.0648 171.135 44.4649C171.735 43.865 172.072 43.0514 172.072 42.203V35.6056Z" fill="#153350"/>
</svg>
