<svg width="200" height="30" viewBox="0 0 200 30" fill="none" xmlns="http://www.w3.org/2000/svg">
<g clip-path="url(#clip0_59_738)">
<path d="M166.422 0.245089H162.5C162.11 0.231394 161.722 0.298104 161.359 0.441065C160.995 0.584027 160.666 0.800181 160.39 1.07607C160.114 1.35196 159.898 1.68169 159.755 2.04472C159.612 2.40776 159.545 2.79634 159.559 3.18627V28.9216H176.716L178.186 23.7745H166.422V0.245089ZM187.99 0.245089H184.069C183.679 0.231394 183.29 0.298104 182.927 0.441065C182.564 0.584027 182.234 0.800181 181.958 1.07607C181.683 1.35196 181.466 1.68169 181.323 2.04472C181.181 2.40776 181.114 2.79634 181.128 3.18627V28.9216H198.529L200 23.7745H188.235V0.245089H187.99ZM48.0393 3.18627V18.3823C48.1189 19.1534 48.0298 19.9326 47.7782 20.6657C47.5266 21.3989 47.1184 22.0686 46.5821 22.6282C46.0457 23.1879 45.3941 23.6242 44.6722 23.9067C43.9504 24.1893 43.1758 24.3115 42.402 24.2647C41.6325 24.295 40.8652 24.1617 40.1511 23.8734C39.4369 23.5851 38.7921 23.1486 38.2592 22.5925C37.7263 22.0365 37.3176 21.3737 37.06 20.6479C36.8023 19.9221 36.7017 19.1499 36.7648 18.3823V0.245089H29.902V17.402C29.902 25.4902 34.5589 29.4118 42.402 29.4118C50.2451 29.4118 54.902 25.4902 54.902 17.402V0.245089H50.9804C50.2043 0.257711 49.4635 0.571636 48.9147 1.1205C48.3658 1.66937 48.0519 2.41016 48.0393 3.18627ZM143.382 16.6667H153.186V11.5196H143.382V5.39215H155.392V0.245089H136.52V25.9804C136.496 26.3522 136.549 26.7248 136.673 27.076C136.797 27.4272 136.991 27.7497 137.242 28.0243C137.494 28.2989 137.798 28.5199 138.138 28.674C138.477 28.8282 138.843 28.9124 139.216 28.9216H154.657L156.127 23.7745H143.382V16.6667ZM110.294 14.7059C110.158 16.5658 110.416 18.4334 111.052 20.1868C111.687 21.9401 112.684 23.5398 113.98 24.8814C115.275 26.223 116.839 27.2762 118.569 27.9724C120.299 28.6686 122.156 28.992 124.02 28.9216H131.618V23.7745H127.451C122.304 23.7745 117.402 22.0588 117.402 14.7059C117.402 7.35293 122.304 5.63725 127.451 5.63725H131.618V0.245089H124.02C116.177 0.245089 110.294 5.63725 110.294 14.7059ZM12.7451 0.245089H2.94122C2.55129 0.231394 2.16271 0.298104 1.79968 0.441065C1.43664 0.584027 1.10692 0.800181 0.831027 1.07607C0.555135 1.35196 0.338981 1.68169 0.19602 2.04472C0.053058 2.40776 -0.0136516 2.79634 4.29448e-05 3.18627V28.9216H12.7451C14.6087 28.992 16.4661 28.6686 18.1961 27.9724C19.9261 27.2762 21.4898 26.223 22.7851 24.8814C24.0804 23.5398 25.0782 21.9401 25.7133 20.1868C26.3483 18.4334 26.6064 16.5658 26.4706 14.7059C26.4706 5.63725 20.5883 0.245089 12.7451 0.245089ZM9.55887 23.7745H7.10789V5.63725H9.55887C14.7059 5.63725 19.6079 7.35293 19.6079 14.7059C19.6079 22.0588 14.7059 23.7745 9.55887 23.7745ZM196.814 6.37254C197.236 6.38617 197.656 6.31307 198.049 6.15777C198.442 6.00247 198.799 5.76826 199.097 5.46962C199.396 5.17099 199.63 4.81428 199.785 4.42154C199.941 4.0288 200.014 3.60838 200 3.18627C199.987 2.34515 199.648 1.54204 199.053 0.947221C198.458 0.352398 197.655 0.0126412 196.814 -9.26109e-06C196.392 -0.0136365 195.971 0.0594604 195.578 0.214763C195.186 0.370065 194.829 0.604272 194.53 0.902906C194.232 1.20154 193.998 1.55825 193.842 1.95099C193.687 2.34373 193.614 2.76415 193.628 3.18627C193.614 3.60838 193.687 4.0288 193.842 4.42154C193.998 4.81428 194.232 5.17099 194.53 5.46962C194.829 5.76826 195.186 6.00247 195.578 6.15777C195.971 6.31307 196.392 6.38617 196.814 6.37254ZM196.814 0.735285C197.157 0.733562 197.497 0.804092 197.812 0.942299C198.127 1.08051 198.409 1.2833 198.64 1.53753C198.871 1.79175 199.046 2.09173 199.154 2.41799C199.261 2.74425 199.299 3.08951 199.265 3.43136C199.268 4.1059 199.017 4.75698 198.564 5.2561C198.11 5.75523 197.486 6.06613 196.814 6.12744C196.47 6.12916 196.13 6.05863 195.816 5.92043C195.501 5.78222 195.219 5.57943 194.988 5.3252C194.757 5.07097 194.582 4.771 194.474 4.44474C194.366 4.11847 194.328 3.77322 194.363 3.43136C194.328 3.08951 194.366 2.74425 194.474 2.41799C194.582 2.09173 194.757 1.79175 194.988 1.53753C195.219 1.2833 195.501 1.08051 195.816 0.942299C196.13 0.804092 196.47 0.733562 196.814 0.735285Z" fill="#153350"/>
<path d="M196.078 3.67646H196.814L197.794 5.14705H198.284L197.304 3.67646C197.436 3.68764 197.568 3.66996 197.692 3.62464C197.816 3.57933 197.929 3.50747 198.022 3.41411C198.115 3.32074 198.187 3.20811 198.233 3.08408C198.278 2.96006 198.296 2.82764 198.284 2.69607C198.284 1.96078 197.794 1.71568 197.059 1.71568H195.588V5.39215H196.078V3.67646ZM196.078 1.96078H196.814C197.304 1.96078 197.549 1.96078 197.549 2.45097C197.549 2.94117 197.059 2.94117 196.569 2.94117H195.833V1.96078H196.078ZM94.6079 0.245091C94.1566 0.175923 93.6961 0.197489 93.2533 0.308528C92.8105 0.419567 92.3944 0.617845 92.0292 0.89175C91.6639 1.16565 91.3571 1.50968 91.1265 1.90367C90.8959 2.29767 90.7463 2.73371 90.6863 3.18627L82.1079 28.1863L76.7157 19.8529C78.7047 19.353 80.4557 18.1721 81.6646 16.5154C82.8736 14.8588 83.464 12.831 83.3334 10.7843C83.3174 9.38416 83.0257 8.00087 82.4751 6.71344C81.9244 5.42601 81.1256 4.25966 80.1242 3.28099C79.1227 2.30231 77.9383 1.53048 76.6386 1.00958C75.3388 0.48868 73.9492 0.228905 72.5491 0.245091H62.2549C61.865 0.231396 61.4764 0.298106 61.1134 0.441067C60.7504 0.584029 60.4206 0.800183 60.1447 1.07607C59.8689 1.35197 59.6527 1.68169 59.5097 2.04473C59.3668 2.40776 59.3001 2.79634 59.3138 3.18627V28.9216H66.1765V5.39215H70.3432C75.9804 5.39215 76.9608 9.06862 76.9608 10.7843C76.9608 16.1765 72.0589 16.4216 68.6275 16.6667L75.7353 28.9216H89.2157L90.6863 24.0196H101.471L102.941 28.9216H110.539L100.98 0.245091H94.6079ZM91.6667 19.6078L96.0785 4.90195L100.49 19.6078H91.6667Z" fill="#153350"/>
</g>
<defs>
<clipPath id="clip0_59_738">
<rect width="200" height="29.4118" fill="white"/>
</clipPath>
</defs>
</svg>
