<svg width="200" height="149" viewBox="0 0 200 149" fill="none" xmlns="http://www.w3.org/2000/svg">
<g clip-path="url(#clip0_59_696)">
<path d="M100 18.5771C155.207 18.5771 200 43.5476 200 74.3293C200 105.111 155.212 130.082 100.005 130.082C44.8063 130.082 -0.00262451 105.108 -0.00262451 74.3267C-0.00262451 43.545 44.8011 18.5771 100 18.5771ZM100 23.6016C47.5913 23.6016 5.06123 46.3614 5.06123 74.3293C5.06123 102.3 47.5966 125.012 100.005 125.012C152.403 125.012 194.952 102.3 194.952 74.3293C194.952 46.3614 152.398 23.6016 100 23.6016ZM82.4325 79.6843H62.7567C62.9717 84.5305 65.6938 86.7831 69.7637 86.7831C72.7978 86.7831 74.8695 85.0733 75.3966 83.3556H81.8504C80.1904 89.2167 75.4097 91.9335 69.5041 91.9335C61.115 91.9335 55.9122 86.1747 55.9122 77.9325C55.9122 69.9525 61.4219 63.8791 69.5041 63.8791C78.5671 63.8764 82.9439 71.4971 82.4325 79.6843ZM69.2996 68.8983C65.2191 68.8983 63.1159 71.6256 62.7881 75.1134H75.5723C75.0741 71.3922 73.5138 68.8983 69.2996 68.8983ZM167.647 79.6843H147.974C148.187 84.5305 150.911 86.7831 154.981 86.7831C158.015 86.7831 160.084 85.0733 160.612 83.3556H167.065C165.408 89.2167 160.625 91.9335 154.722 91.9335C146.33 91.9335 141.13 86.1747 141.13 77.9325C141.13 69.9525 146.639 63.8791 154.722 63.8791C163.785 63.8764 168.161 71.4971 167.647 79.6843ZM154.517 68.8983C150.439 68.8983 148.333 71.6256 148.006 75.1134H160.787C160.292 71.3922 158.729 68.8983 154.517 68.8983ZM21.4748 91.2097H28.7861V75.3573H44.5624V91.2097H51.8685V54.3781H44.5624V69.4622H28.7861V54.3781H21.4748V91.2097ZM86.471 91.2097H93.3312V76.818C93.3312 71.4106 95.243 69.1973 99.2028 69.1973C102.601 69.1973 104.13 71.3608 104.13 75.7349V91.2097H110.993V74.8407C110.993 68.2506 109.037 63.8764 101.259 63.8764C98.1696 63.8764 94.9755 65.3161 93.1214 68.3031H92.9693V64.595H86.4684L86.471 91.2097ZM116.859 91.2097H123.725V76.7996L133.863 91.2097H142.404L131.228 76.283L141.14 64.5976H132.937L123.722 76.0758V54.3807H116.857L116.859 91.2097ZM171.681 91.2097H178.541V54.3755H171.681V91.2097Z" fill="#153350"/>
</g>
<defs>
<clipPath id="clip0_59_696">
<rect width="200" height="148.664" fill="white"/>
</clipPath>
</defs>
</svg>
