<svg width="200" height="61" viewBox="0 0 200 61" fill="none" xmlns="http://www.w3.org/2000/svg">
<path d="M13.6245 51.7818V58.5863C12.0234 59.5202 10.4224 59.9872 8.22094 59.9872C4.0849 59.9872 0.74939 56.9852 0.74939 52.649C0.74939 48.3129 4.0849 45.3109 8.35436 45.3109C10.2222 45.3109 11.6899 45.7779 13.0908 46.5117L11.6899 49.1801C10.6892 48.6464 9.62186 48.3796 8.48778 48.3796C5.68595 48.3796 4.15161 50.1141 4.15161 52.649C4.15161 55.3842 5.95279 57.0519 8.28765 57.0519C9.35502 57.0519 9.8887 56.9185 10.3557 56.6517V54.5836H7.48713V51.7818H13.6245ZM25.2321 59.7203L22.8305 55.1173C22.6304 55.1173 22.4969 55.1173 22.2968 55.1173C21.8298 55.1173 21.563 55.1173 21.096 55.0506V59.7203H17.8272V45.6445C19.028 45.511 20.3622 45.4443 22.03 45.4443C26.4328 45.4443 28.1673 47.5791 28.1673 50.1808C28.1673 51.8485 27.2334 53.3829 25.699 54.3168L29.0345 59.787H25.2321V59.7203ZM22.3635 48.3796C21.8298 48.3796 21.563 48.3796 21.096 48.4463V52.3822C21.4963 52.4489 21.7631 52.4489 22.1634 52.4489C23.6977 52.4489 24.7651 51.7151 24.7651 50.2475C24.6984 49.0467 23.7644 48.3796 22.3635 48.3796ZM32.1699 59.7203V45.511H41.1758V48.513H35.5055V51.048H40.7089V53.9165H35.5055V56.7184H41.1758V59.7203H32.1699ZM45.512 59.7203V45.511H54.5179V48.513H48.8475V51.048H54.0509V53.9165H48.8475V56.7184H54.5179V59.7203H45.512ZM70.7285 59.9872L62.1896 52.3155V59.7203H58.9208V45.3109L59.3877 45.2442L67.8599 52.8492V45.511H71.1287V59.9205L70.7285 59.9872ZM92.7429 59.7203L92.5427 52.7825L88.6068 57.7857H88.2733L84.2707 52.7825L84.1372 59.7203H81.0019L81.669 45.4443L82.1359 45.3776L88.5401 53.5163L94.8109 45.3776L95.2779 45.4443L95.945 59.7203H92.7429ZM107.019 59.9872C102.616 59.9872 99.8142 56.8518 99.8142 52.649C99.8142 48.4463 102.749 45.3109 107.152 45.3109C111.555 45.3109 114.357 48.4463 114.357 52.649C114.357 56.7851 111.422 59.9872 107.019 59.9872ZM107.086 48.2462C104.817 48.2462 103.35 50.1141 103.35 52.649C103.35 55.184 104.884 57.0519 107.086 57.0519C109.354 57.0519 110.821 55.184 110.821 52.649C110.821 50.1141 109.287 48.2462 107.086 48.2462ZM124.23 59.9872C120.428 59.9872 118.293 57.9192 118.293 53.9832V45.5778H121.562V53.7831C121.562 55.7844 122.429 56.9852 124.297 56.9852C126.165 56.9852 127.032 55.7844 127.032 53.7831V45.5778H130.301V53.9832C130.301 57.9192 128.033 59.9872 124.23 59.9872ZM146.511 59.9872L137.972 52.3155V59.7203H134.704V45.3109L135.171 45.2442L143.643 52.8492V45.511H146.912V59.9205L146.511 59.9872ZM157.852 48.5797V59.7203H154.583V48.5797H150.314V45.5778H162.122V48.5797H157.852ZM172.995 59.7203L171.928 57.1186H167.058L165.991 59.7203H162.655L169.326 45.4443H169.793L176.464 59.7203H172.995ZM169.526 51.2481L168.126 54.6504H170.927L169.526 51.2481ZM179.333 59.7203V45.511H182.602V59.7203H179.333ZM199.146 59.9872L190.54 52.3155V59.7203H187.271V45.3109L187.738 45.2442L196.211 52.8492V45.511H199.479V59.9205L199.146 59.9872Z" fill="#153350"/>
<path d="M40.7089 1.68239H64.5911V8.68697H49.3812V14.6909H63.3904V21.7622H49.3812V28.2998H64.5911V35.3044H40.7089V1.68239ZM94.3439 24.3639C94.3439 27.0323 92.8763 28.4999 88.6068 28.4999C84.3374 28.4999 82.9365 27.0323 82.9365 24.3639V1.68239H74.2641V25.3645C74.2641 30.6347 77.4662 35.9715 88.6068 35.9715C99.8142 35.9715 103.016 30.7014 103.016 25.3645V1.68239H94.3439V24.3639ZM153.249 35.3044H161.921V1.68239H153.249V35.3044ZM191.474 18.6935V28.1664C189.94 28.4332 188.205 28.6333 186.271 28.6333C181.801 28.6333 181.001 27.099 181.001 24.2305V12.6229C181.001 9.4875 182.468 8.48684 186.204 8.48684C189.74 8.48684 193.609 8.8871 197.812 9.4875L198.612 2.21608C194.343 1.34884 190.34 1.082 186.471 1.082C176.598 1.082 172.462 4.41752 172.462 11.5555V25.498C172.462 32.2357 176.197 35.9715 186.271 35.9715C190.74 35.9715 195.543 35.3711 199.613 34.237V18.6935H191.474ZM137.439 24.0303L144.243 35.3044H134.504L129.1 25.7648H122.496V35.3044H113.823V1.68239H129.7C138.773 1.68239 141.642 5.21804 141.642 11.3554V16.0918C141.708 19.8943 140.641 22.0957 137.439 24.0303ZM133.303 11.7556C133.303 9.55421 132.235 8.62026 129.7 8.62026H122.496V18.9604H129.5C132.302 18.9604 133.303 17.9597 133.303 15.6916V11.7556ZM6.08621 25.1644C3.15096 25.1644 0.74939 27.566 0.74939 30.5679C0.74939 33.5699 3.15096 35.9715 6.08621 35.9715C9.02147 35.9715 11.423 33.5699 11.423 30.5679C11.423 27.566 9.02147 25.1644 6.08621 25.1644ZM6.08621 13.0899C3.15096 13.0899 0.74939 15.4914 0.74939 18.4934C0.74939 21.4954 3.15096 23.8969 6.08621 23.8969C9.02147 23.8969 11.423 21.4954 11.423 18.4934C11.423 15.4914 9.02147 13.0899 6.08621 13.0899ZM6.08621 1.01529C3.15096 1.01529 0.74939 3.41686 0.74939 6.41882C0.74939 9.42079 3.15096 11.8224 6.08621 11.8224C9.02147 11.8224 11.423 9.42079 11.423 6.41882C11.423 3.41686 9.02147 1.01529 6.08621 1.01529ZM32.5035 1.68239H22.7638L12.8907 18.4934L22.7638 35.3044H32.5035L22.3635 18.4934L32.5035 1.68239Z" fill="#153350"/>
</svg>
