<svg width="200" height="200" viewBox="0 0 200 200" fill="none" xmlns="http://www.w3.org/2000/svg">
<g clip-path="url(#clip0_59_743)">
<path d="M149 145.727C150.909 145.727 152.182 146.818 152.273 148.182C152.273 149.182 151.454 150 150.454 150C148.273 150 148.818 148.364 147.909 148.364C145.873 148.364 144.274 151.494 142.75 154.845L142.515 155.361L142.166 156.138L141.818 156.909C141 158.545 140.636 158.818 140 158.818C138.454 158.818 138.182 154.727 137.545 152.909C136.273 155.636 133.727 158.818 129.727 158.818C127.364 158.727 125.091 157.545 125.091 153.909C125.091 149.818 127.818 146.909 130.545 146.909C132.636 146.909 134 149.091 134 150.545C133.909 154.545 128.545 154.636 128.545 155.455C128.545 156.273 129.909 156.545 130.727 156.545C134.182 156.545 136.454 152.091 137.273 149C137.454 148.455 137.909 147.364 138.909 147.364C140 147.364 139.454 154.091 141 154.091C142 154.091 143.273 145.727 149 145.727V145.727ZM95.1818 136.545C96.9999 136.455 98.4545 138.182 98.6363 140.909C98.9999 148.182 96.5454 151.091 95.2727 153.727C95.5454 154.727 97.2727 156.455 98.909 156.455C99.5454 156.455 100.273 156.182 100.454 155.909C100.273 155.455 100.182 155 100.182 154.182C100.182 150 103 146.545 105.364 146.545C107.273 146.545 108.364 149 108.364 150.636C108.364 152.545 106.727 154.091 104.273 155.545C104.727 156 105.545 156.273 106.182 156.273C109.636 156.364 111.545 152.182 112.909 148.455C113.182 147.727 113.636 146.727 114.454 146.727C115.909 146.727 116.454 156.182 118.909 156.182C119.909 156.182 120.818 154.091 120.818 152.455C120.909 151.182 120.454 151.091 120.454 149.364C120.454 147.455 121.454 145.818 122.909 145.818C123.818 145.818 124.091 146.636 124.091 147.636C124 151.455 121.182 158.545 117 158.545C113.909 158.545 114.182 153.273 113.091 153.273C111.909 153.273 110.182 158.545 104.091 158.545C103.091 158.545 102 158.091 101.182 157.091C99.7272 158.091 98.4545 158.455 97.0909 158.455C94.8181 158.455 93.8181 156.182 92.909 156.182C91.8181 156.182 90.5454 158.455 86.909 158.455C83.9999 158.455 83.4545 154.636 82.4545 154.636C81.5454 154.636 80.0909 158.455 78.5454 158.455C77.3036 158.455 76.5381 156.875 75.8154 155.258L75.5999 154.773C74.9172 153.244 74.2354 151.818 73.1818 151.818C72.3554 151.818 70.6363 153.357 68.8963 154.943L68.4218 155.375C66.6863 156.957 65.0118 158.451 64.2727 158.364C63.6363 158.273 63.3636 157.909 63.4545 157.273C63.5454 156.455 64.3636 154.182 64.6363 153.182C65.1818 151.364 65.6363 149.364 65.909 148.727C66.0909 148.091 66.8181 147.636 67.3636 147.727C67.6363 147.727 67.7272 148.182 67.8181 148.636C68.0909 150.091 68.5454 151.636 68.9999 151.636C69.8181 151.636 72.7272 146.364 74.3636 146.364C76.4545 146.364 76.6363 154.727 79.3636 154.727C80.2727 154.727 80.909 153.636 81.5454 152.364C81.6363 150.182 82.2727 147 84.0909 147C85.3636 147 85.909 149.818 84.9999 152.273C84.909 155.182 86.909 155.909 88.1818 155.909C89.0909 155.909 90.6363 155.636 91.909 153.727C91.1818 152.182 90.7272 149 90.6363 147.909C90.3636 142.091 92.6363 136.636 95.1818 136.545V136.545ZM60.1818 138.364C61.2727 138 61.7272 138.545 62.1818 139.818C62.7272 141.727 62.7272 144.273 62.5454 147.818C62.2727 152.727 59.7272 158.636 53.4545 158.455C47.9999 158.364 45.6363 154.909 45.4545 149.727C45.3636 147.273 45.5454 144.818 46.6363 141.364C47.2727 139.545 47.7272 138.909 49.4545 138.545C50.8181 138.273 50.6363 139.636 50.3636 141.273C49.6363 144.818 49.3636 146.545 49.5454 150.636C49.8181 154.909 51.8181 156.636 53.9999 156.636C57.3636 156.727 58.8181 154.091 59.4545 150.182C59.909 147.091 59.5454 145.636 59.2727 144.636C59.0909 144.091 58.5454 142.909 58.4545 142C58.0909 140 59.1818 138.636 60.1818 138.364V138.364ZM104.454 149.364C103.909 149.273 102.636 149.909 102.636 151.818C102.636 153.364 103.182 154.091 103.454 154.364C105.273 153.818 105.727 152.364 105.636 151.182C105.636 150.182 105.091 149.364 104.454 149.364V149.364ZM129.727 149.273C127.364 149.273 127.545 153 127.909 153.818C129.636 153.545 130.818 152.545 131.091 151.636C131.364 150.727 131 149.273 129.727 149.273V149.273ZM95.3836 140.085L95.2727 140.091C94.0909 140.182 93.5454 143.909 93.7272 147.818C93.909 150.364 94.2727 150.727 94.6363 150.727C95.2727 150.727 96.909 146.091 96.7272 142.455C96.6363 140.818 96.1818 140 95.2727 140.091L95.3836 140.085ZM84.8181 137.273C85.909 137.273 86.6363 137.909 86.7272 138.909C86.909 140.273 85.909 141.727 84.5454 141.727C83.3636 141.727 82.8181 140.909 82.6363 139.909C82.5454 138.455 83.6363 137.273 84.8181 137.273Z" fill="#153350"/>
<path fill-rule="evenodd" clip-rule="evenodd" d="M107.909 117.455C107.545 116.818 107.818 115.727 106.818 115.727C106.182 115.727 106.091 116.273 106 116.727C104.636 116.273 103.455 116.091 102.364 116.091C101.636 116.091 101 116.182 100.364 116.364C100 115.727 98.3637 114.455 97 114C96.4546 117 93.8182 119.273 89.9091 119.636C89.7273 121.545 88.1818 122.091 87 122.091C86.1818 122.091 84.8182 121.818 84.7273 121.455C84.2728 118.636 82.1819 117.091 81.1819 116.727C81.1819 117 81.2728 117.364 81.2728 117.636C81.2728 120 79.6364 121.455 76.6364 121.455C76.1819 121.455 75.5455 121.455 75.0909 121.364C78.5455 125.182 81 123.818 82.5455 124.545C84.6364 125.455 86.3637 128.455 93.0909 128.455C95.5455 128.455 98 127.455 99.6364 126.455C99.9091 127.455 100.909 128.364 102.636 128.364C105.455 128.364 107.091 127.455 107.091 126.727C107.091 126.545 107.091 126.273 106.545 126.273C106.091 126.273 106.091 126.364 104.545 126.364C102.727 126.364 99.8182 125.636 98.4546 122.455C98.1819 121.909 97.8182 121.909 97.7273 121.909C96.8182 121.909 95.3637 125.182 89.6364 125.182C87.1819 125.182 86.0909 124.273 86.0909 124.091C86.0909 124.091 86.0909 124 86.1819 124C86.4546 124 87.2728 124.091 88.3637 124.091C92 124.091 94.9091 122.364 96.7273 120.455C97.3637 119.727 97.6364 119.636 98.1819 119.636C98.6364 119.636 99.0909 120 99.3637 120.636C100.182 122.727 102.091 124.455 104.091 124.455C106.818 124.455 106.909 119.727 107.545 119.455C107.636 119.455 107.818 119.545 107.909 119.545C108.273 119.545 108.727 119.273 108.727 118.727C108.818 118 108 117.818 107.909 117.455ZM103.364 121C102.636 121 102.091 120.455 102.091 119.727C102.091 119 102.636 118.364 103.364 118.364C104.091 118.364 104.636 119 104.636 119.636C104.727 120.455 104.091 121 103.364 121Z" fill="#153350"/>
<path fill-rule="evenodd" clip-rule="evenodd" d="M93.9091 108.364C94.5455 108.364 94.8182 108.909 94.9091 109.455C95.0909 109.273 95.3637 109.182 95.6364 109.182C96.2728 109.182 96.6364 109.636 96.6364 110.182C96.6364 110.545 96.4546 110.818 96.1819 111C96.5455 111.182 96.8182 111.455 96.8182 111.818C96.8182 112.273 96.4546 112.636 95.9091 112.636C95.4546 112.636 95.0909 112.091 94.6364 112.091C94.3637 112.091 94 112.182 93.9091 112.364C94.0909 112.818 94.1818 113.182 94.1818 113.636C94.1818 116 91 117.909 87.6364 117.909C84.3637 117.909 83.0909 116 83.0909 115.182C83.0909 115 83.1819 114.909 83.4546 114.909C84 114.909 84.0909 115.091 85.6364 115.091C89.1818 115.091 87.9091 110.545 91.2728 110.545C91.7273 110.545 92.7273 110.818 93.0909 111.455C93.3637 111.182 93.4546 110.818 93.4546 110.545C93.4546 110 93.0909 109.636 93.0909 109.182C93.0909 108.727 93.4546 108.455 93.9091 108.364Z" fill="#153350"/>
<path fill-rule="evenodd" clip-rule="evenodd" d="M72.8182 106C76.8182 106 79.9091 109.364 79.9091 114.182C79.9091 116.364 78.7273 119.545 73.9091 119.545C68.1818 119.545 64.7273 114.727 64.7273 111.636C64.7273 109 66.4546 107.364 67.5455 107.091C66.3637 111.818 69 116.364 74.2727 116.364C76.9091 116.364 78.1818 115.091 78.1818 112.818C78.1818 110.273 76.4546 107.818 73.4546 107.818C72 107.818 70.9091 108.636 70.9091 109.818C70.9091 111.727 72.5455 112.909 74.2727 112.909C75.3637 112.909 76.0909 112.455 76.0909 111.727C76.0909 111.636 76.0909 111.455 76 111.364C75.9091 111.455 75.6364 111.455 75.2728 111.455C73.9091 111.455 72.8182 110.727 72.8182 109.909C72.8182 109.273 73.2727 108.909 73.8182 108.909C75.8182 108.909 77.1818 110.909 77.1818 112.364C77.1818 113.818 76.0909 115.091 74.2727 115.091C70.3637 115.091 68.6364 111.909 68.6364 109.818C68.7273 107.545 70.6364 106 72.8182 106Z" fill="#153350"/>
<path fill-rule="evenodd" clip-rule="evenodd" d="M120.727 116.727C119.909 117.364 117.909 118.818 114.545 118.818C112.727 118.818 112 118.273 111.727 118.273C111.364 118.273 111 118.636 110.636 119C109.818 119.909 108.818 121.545 108.818 123.455C108.818 124.727 109.818 126 111.727 126C117.909 126 122.454 122.182 122.454 119.182C122.545 117.455 121.454 116.727 120.727 116.727ZM117.545 122.636L114 123.636C114.273 122.909 114.454 122.091 114.454 121.273C114.454 121 114.454 120.818 114.364 120.545H114.818C117.454 120.545 118.545 119.545 118.727 119.545C118.909 119.545 119.091 119.636 119.091 120.182C119.091 120.909 118.727 121.909 117.545 122.636Z" fill="#153350"/>
<path fill-rule="evenodd" clip-rule="evenodd" d="M115.455 117.455C116.909 117.455 118.182 117.091 119 116.364C119.273 116.182 119.364 115.818 119.364 115.455V114.727C119.364 113.818 117.909 113.273 115.909 113.273C113.545 113.273 112.273 114.364 112.273 114.818V116.273C112.273 116.818 113.636 117.455 115.455 117.455Z" fill="#153350"/>
<path fill-rule="evenodd" clip-rule="evenodd" d="M126.545 102C121.727 102 123 106.091 117.364 107.364C116.364 107.545 116 107.909 116 108.364C116 109.182 116.455 110.273 117.091 110.273C119.545 110.273 123.273 105.273 124 105.273C124.273 105.273 124.545 105.273 124.545 106C124.545 107.818 119.273 110.182 119.273 111.455C119.273 112.182 121.091 113.818 123 113.818C125.636 113.818 128 108.545 128.545 108.545C129 108.545 129.091 108.818 129.091 109.182C129.091 110.636 127.273 113.455 124.182 114.636C123.545 114.909 123.455 115.182 123.455 115.364C123.455 116.091 124.273 117.091 125 117.091C125.909 117.091 132 111.818 132 107.636C132.182 103.727 129.182 102 126.545 102ZM128.727 106.545C128.364 106.545 128 106.455 127.818 106.273C127.364 106.091 126.636 105.455 126.636 104.545C126.636 103.636 127.091 103.364 127.545 103.364C128.909 103.364 130.455 104.545 130.455 105.545C130.455 106.364 129.727 106.545 128.727 106.545Z" fill="#153350"/>
<path fill-rule="evenodd" clip-rule="evenodd" d="M83.2727 108.727H82.4545C82.1818 108.727 81.7273 108.636 81.4545 108.455C80.9091 108 80.7273 105.545 79.8182 104.091C78.7273 102.455 77.5454 102 76 102C74.9091 102 73.6364 102.636 73.6364 103.545C73.6364 104.091 73.9091 104.455 76 105C78.6364 105.636 79.9091 107.091 80.1818 108.727C80.4545 110.364 80.7273 111.636 81.3636 112.273C82.1818 113.182 83.7273 114 85.1818 114C86.3636 114 87.2727 113.636 87.2727 112.545C87.1818 111.364 85.5454 108.727 83.2727 108.727ZM85 112.273C84 112.273 82.5454 111.273 82.5454 110.636C82.5454 110.182 83 109.909 83.3636 109.909C84.1818 109.909 85.6364 110.909 85.6364 111.727C85.6364 112 85.4545 112.273 85 112.273Z" fill="#153350"/>
<path fill-rule="evenodd" clip-rule="evenodd" d="M103.091 105.364C102.455 105.364 102.455 106.364 102.455 106.727C102.455 107.091 102.455 107.182 102.182 107.182C101.909 107.182 101.727 107.091 101.455 107.091C101.273 107.091 101.091 107.273 101.091 107.545C101.091 108.909 102.818 110 104.545 110C106.818 110 107.909 109 108.545 109C108.818 109 108.909 109.273 108.909 109.455C108.909 109.818 108.545 110.273 108.545 110.455C108.545 111 109.636 110.545 109.636 111.182C109.636 112 108.273 112.636 106.182 112.636C102.091 112.636 99.4545 109.818 99.4545 107.182C99.4545 102.273 104.727 103.818 104.727 101.909C104.727 101.273 104.091 100.909 103.636 100.909C104.182 100.182 104.909 100.091 105.636 100.091C106.182 100.091 106.727 100.182 107.182 100.182C107.818 100.182 108.455 99.9091 108.455 99.1818C108.455 98.7273 108.091 98.1818 106.545 98C106.727 97 108.818 97.5454 108.818 96.6364C108.818 96 107.636 95.5454 106.182 95.5454C100.545 95.5454 96.5454 100.182 96.5454 105.182C96.5454 109.727 99.8181 114.727 105.909 114.727C111.818 114.727 114.636 109.909 114.636 106.273C113.545 107.273 110.636 107.545 109.182 107.545C104.909 107.636 103.727 105.364 103.091 105.364Z" fill="#153350"/>
<path fill-rule="evenodd" clip-rule="evenodd" d="M107.727 106C108.636 106 109.273 105.273 109.273 104.455C109.273 103.182 108 102 106.091 102C106.454 102.364 106.545 102.636 106.545 103C106.545 103.455 106.273 104 106.273 104.545C106.273 105.364 106.818 106 107.727 106ZM116.909 99.8182C117.182 100.182 117.273 100.545 117.273 100.909C117.273 101.818 116.636 102.727 116.636 103.636C116.636 104.727 117.454 105.636 118.727 105.636C120.091 105.636 121 104.545 121 103.273C120.909 101.455 119.364 100 116.909 99.8182ZM110.364 96.3636C110.818 96.9091 111 97.4545 111 98.0909C111 99.5455 109.909 101 109.909 102.364C109.909 104.182 111.091 105.364 112.818 105.364C114.636 105.364 115.727 103.818 115.727 102.091C115.727 99.6364 113.818 97 110.364 96.3636ZM112.909 101.545C112.454 101.545 112.091 101.182 112.091 100.727C112.091 100.455 112.273 100.091 112.273 99.7273C112.364 99.2727 112.273 98.9091 112.545 98.9091C113.091 98.9091 113.727 99.9091 113.727 100.545C113.727 101.091 113.454 101.545 112.909 101.545Z" fill="#153350"/>
<path fill-rule="evenodd" clip-rule="evenodd" d="M91.9091 97.6364C90.4545 97.0909 89.8182 96.2727 89.4545 94.5454C88.7273 95.5454 88.3636 96.4545 88.3636 97C88.3636 99.1818 91.3636 99.1818 91.3636 100.636C91.3636 101.455 89.8182 102.364 87.8182 102.364C85.5454 102.364 83.9091 102 82.4545 100.545C82.0909 100.182 81.9091 99.8182 81.4545 99.8182C80.9091 99.8182 80.6364 100.727 80.6364 101.636C80.6364 104.727 83.6364 108.455 87.8182 108.455C93 108.455 95.0909 104.909 95.0909 102C95.1818 100.273 94.8182 98.7273 91.9091 97.6364ZM90.4545 106.364C90 106.364 89.9091 106.182 89.9091 105.727C89.9091 105.455 90 104.909 90 104.455C90 103.364 90.4545 103.455 91.5454 102.909C92.3636 102.545 92.6364 102.091 92.9091 102.091C93.1818 102.091 93.4545 102.273 93.4545 102.727C93.4545 104.364 91.6364 106.364 90.4545 106.364Z" fill="#153350"/>
<path fill-rule="evenodd" clip-rule="evenodd" d="M85.2727 92.3636C84.7272 92.3636 83.8181 91.8182 82.909 91.0909C81.909 92.0909 81.1818 93.4545 81.1818 95C81.1818 98.1818 84.5454 100.818 87.8181 100.818C88.3636 100.818 88.909 100.727 89.4545 100.636C87.6363 100.455 86.5454 99.0909 86.5454 97.4545C86.5454 95.3636 88.909 93.4545 88.909 91.8182C88.909 89.8182 86.4545 89.6364 86.4545 88C86.4545 86.6364 88.8181 85.6364 88.7272 83.4545C88.7272 82.1818 87.4545 80.6364 85.7272 79.7273C85.9999 80.2727 86.1818 81 86.1818 81.4545C86.1818 84 81.2727 85.0909 81.2727 87.0909C81.2727 89.6364 85.9999 90.6364 85.9999 91.8182C85.9999 92.0909 85.8181 92.3636 85.2727 92.3636Z" fill="#153350"/>
<path fill-rule="evenodd" clip-rule="evenodd" d="M134.818 94C136.455 94 137.727 96.0909 137.727 98.5455C137.727 101.182 136.455 104 134.273 106C134.273 101.636 128.909 103 128.909 99.8182C128.909 98.4545 129.909 97.5455 131.091 97.5455C132.091 97.5455 132.909 97.8182 133.545 98.4545C133 97.9091 132.636 97.0909 132.636 96.3636C132.636 95.1818 133.364 94 134.818 94Z" fill="#153350"/>
<path fill-rule="evenodd" clip-rule="evenodd" d="M70.4545 98.4545C70 98.5455 69.6363 98.6364 69.3636 98.9091C69.0909 97.9091 68.1818 97 66.9091 97.2727C65.8182 97.4545 65 98.4545 65.1818 99.7273C65.1818 99.9091 65.2727 100.182 65.3636 100.364C65.3636 100.364 65.1818 100.364 65 100.455C64.0909 100.636 63 101.545 63.1818 102.909C63.3636 104.091 64.3636 104.909 65.5454 104.818C66 104.727 66.3636 104.636 66.6363 104.455C66.9091 105.545 67.8182 106.182 69 106.091C70.1818 105.909 71 104.909 70.9091 103.727C70.9091 103.364 70.8182 103.182 70.7272 103H71C72.1818 102.727 73 101.818 72.9091 100.636C72.5454 99.1818 71.5454 98.2727 70.4545 98.4545ZM68.0909 102.909C67.3636 103 66.8182 102.455 66.7272 101.818C66.6363 101.091 67.0909 100.455 67.8182 100.364C68.5454 100.273 69.0909 100.818 69.1818 101.455C69.2727 102.182 68.8182 102.818 68.0909 102.909Z" fill="#153350"/>
<path fill-rule="evenodd" clip-rule="evenodd" d="M129.364 93C129.364 92.5454 130.455 91.4545 130.455 91.0909C130.455 91 130.364 90.9091 130.273 90.9091C129.818 90.9091 128.273 92.0909 126 92.0909C125.091 92.0909 124.454 92 124.454 91.2727C124.454 90.6364 125 90.0909 125.909 89.7273C126.909 89.2727 128.909 89.2727 128.909 88.8182C128.909 88.4545 127 88.4545 127 88.0909C127 87.6364 127.727 86.5454 127.727 86.0909C127.727 86.0909 127.727 85.9091 127.636 85.9091C127.273 85.9091 126.364 87 125.818 87C125.273 87 124.818 85.6364 124.364 85.6364C124.273 85.6364 124.091 85.7273 124.091 86C124.091 86.5454 124.364 87.5454 124.364 88.9091C124.364 90.0909 123.727 91.0909 123.091 91.0909C122.273 91.0909 122 90.0909 122 89.2727C122 88.0909 122.636 86.7273 122.636 85.4545C122.636 85.1818 122.545 85.0909 122.364 85.0909C121.909 85.0909 121.182 86.4545 120.636 86.4545C120.273 86.4545 119.636 84.8182 119.091 84.8182C119 84.8182 118.909 85.0909 118.909 85.4545C118.909 85.9091 119 86.5454 119 86.8182C119 87.1818 118.545 87.2727 118 87.2727C117.636 87.2727 116.909 87.2727 116.909 87.5454C116.909 87.8182 117.636 88.0909 118.273 88.5454C119.455 89.3636 121.364 90.1818 121.364 92.0909C121.364 93.8182 118.909 95 117.182 95.3636C116.364 95.4545 115.545 95.6364 115.545 95.9091C115.545 96.2727 117.727 96.3636 117.727 96.8182C117.727 97.0909 116.727 98.3636 116.727 98.7273C116.727 98.8182 116.818 98.8182 116.818 98.8182C117.182 98.8182 118.273 97.9091 118.727 97.9091C119.364 97.9091 119.273 99.8182 119.727 99.8182C120.273 99.8182 120.091 97 120.273 96.2727C120.636 95 121.545 93.7273 122.364 93.7273C123.364 93.7273 123.455 95.4545 123.455 96.2727C123.455 97.9091 122.273 99.6364 122.273 100.455C122.273 100.545 122.364 100.636 122.454 100.636C122.818 100.636 123.636 99.5454 124.091 99.5454C124.545 99.5454 125.545 101.364 125.909 101.364C126.091 101.364 126.182 101.182 126.182 101C126.182 100.455 125.909 99.5454 125.909 99C125.909 98.3636 128 98.7273 128 98.2727C128 98.0909 127.091 97.7273 126.545 97.3636C125.364 96.6364 124 95.0909 124 93.8182C124 93.3636 124.273 93 124.636 93C127.182 93 128.273 96.9091 128.727 96.9091C129.182 96.9091 128.909 95.1818 129.091 94.9091C129.182 94.8182 129.455 94.7273 129.727 94.7273C130.182 94.7273 130.727 94.8182 131.091 94.8182C131.364 94.8182 131.455 94.8182 131.455 94.7273C131.364 94.1818 129.364 93.5454 129.364 93Z" fill="#153350"/>
<path fill-rule="evenodd" clip-rule="evenodd" d="M119.273 91.9091C119.273 91.0909 115.727 88.3636 115 88.3636C114.818 88.3636 114.727 88.4545 114.727 88.6364C114.727 88.9091 114.818 89.2727 114.818 89.5454C114.818 90.1818 114.545 90.2727 113.909 90.2727C113.182 90.2727 112 90 112 88.8182C112 86.5454 116.364 87.0909 116.818 85C114.909 85 114 83.7273 112.727 83.7273C112.273 83.7273 111.364 84 111.364 85.1818C111.364 85.5454 111.455 86.1818 111.455 86.7273C111.455 87.2727 111.364 87.6364 110.727 87.6364C110.182 87.6364 110.091 87 110.091 86.2727C110.091 85.6364 110.182 84.9091 110.182 84.4545C110.182 81.0909 106.455 82.4545 106.091 79.7273C105.182 81.3636 104.909 82.5455 104.909 83.5455C104.909 87.0909 109.727 86.7273 109.727 89.1818C109.727 89.8182 109.273 90.1818 108.818 90.1818C108 90.1818 107.455 88.4545 106.182 88.4545C105.545 88.4545 105.091 88.9091 105.091 89.9091C105.091 90.6364 105.273 91.1818 105.273 91.9091C105.273 93.3636 104.636 94 104 94.6364C108.364 94.2727 108.636 91 109.909 91C110.273 91 110.455 91.2727 110.455 91.4545C110.455 92 109.545 92.9091 109.545 93.8182C109.545 95 110.909 95.6364 111.818 95.6364C112.909 95.6364 113.273 95.2727 113.273 94.5454C113.273 93.7273 111.818 92.6364 111.818 91.7273C111.818 91.2727 112.273 91.1818 112.909 91.1818C114.273 91.1818 114.727 91.3636 114.727 91.6364C114.727 92 114.182 92.7273 114.182 92.9091C114.182 93 114.273 93.2727 114.545 93.2727C115.545 93.4545 119.273 92.6364 119.273 91.9091Z" fill="#153350"/>
<path fill-rule="evenodd" clip-rule="evenodd" d="M73.3636 79.6364C72.7272 80.8182 72.5454 82.3636 72.5454 83.2727C72.5454 88.8182 79.1818 94 79.1818 97.4545C79.1818 98.8182 78.1818 100.455 76.3636 100.455C74.7272 100.455 73.8181 99.1818 73.8181 98.0909C73.8181 97.2727 74.3636 96.5454 74.6363 96.5454C74.7272 96.5454 74.7272 96.6364 74.7272 96.8182C74.7272 97.2727 75.0909 97.9091 75.8181 97.8182C76.5454 97.8182 76.9091 97.3636 76.9091 96.7273C76.9091 94 71.4545 89.2727 71.4545 82.8182C71.1818 83.5454 70.8181 84.4545 70.8181 85.8182C70.8181 88.9091 73.0909 92.1818 73.0909 95.1818C73.0909 96.3636 72.1818 97.4545 71 97.4545C69.6363 97.4545 69.1818 96.3636 69.1818 95.7273C69.1818 95.2727 69.3636 94.8182 69.5454 94.8182C69.7272 94.8182 69.6363 95.5454 70.3636 95.5454C71.1818 95.5454 71.4545 95 71.4545 94C71.4545 91.2727 69.9091 89.3636 69.9091 86.5454C69.9091 86.0909 69.9091 85.6364 70 85.2727C69.1818 86.2727 69.0909 87.7273 69.0909 89V92.3636C69.0909 94.6364 68 95.6364 66.6363 95.6364C65.7272 95.6364 64.9091 94.9091 64.9091 93.7273C64.9091 93.5454 65 93 65.1818 93C65.4545 93 65.6363 93.7273 66.3636 93.7273C67.8181 93.7273 67.9091 92.3636 67.9091 89.5454C67.7272 86.0909 69 82.3636 73.3636 79.6364Z" fill="#153350"/>
<path fill-rule="evenodd" clip-rule="evenodd" d="M64.3636 78C64.8182 78 65 78.4545 65 78.8182C65 80.3636 63 84.9091 63 86.1818C63 86.3636 63.0909 86.5454 63.2727 86.5454C64.0909 86.5454 65.7273 83 66.2727 81.2727C66.5455 80.3636 67 79.9091 67.3636 79.9091C67.7273 79.9091 68 80.2727 68 81C68 82.7273 66.3636 86.9091 64.9091 89.6364C63.8182 91.8182 62 94.9091 62 96.6364C62 97.5455 62.1818 98.4545 63.4545 99.5455C61.3636 99.4545 60.4545 99.1818 59.6364 97.6364C56.0909 104.545 66.1818 103.909 62.7273 110.091C62.0909 109 57.0909 107.818 57.0909 101.364C57.0909 95.8182 62.0909 92.5454 62.0909 90.1818C62.0909 89.7273 61.9091 89.3636 61.4545 89C60.3636 88.0909 60.3636 87.3636 59.4545 87.3636C58.8182 87.3636 58.0909 88.8182 58.8182 90.0909C59.0909 90.5454 59.2727 90.8182 59.2727 91.1818C59.2727 92.0909 57.8182 94.5455 56.8182 94.5455C55.8182 94.5455 55 92 55 88C55 84.4545 55.8182 80.8182 56.8182 80.8182C57.0909 80.8182 57.1818 81 57.1818 81.2727C57.1818 81.7273 57.0909 82.5455 57.0909 84C57.0909 85.5455 57.4545 85.6364 57.7273 85.6364C58.8182 85.6364 58.6364 78.8182 60.4545 78.8182C60.9091 78.8182 61 79.2727 61 79.7273C61 81.2727 60.2727 83.5454 60.2727 84.7273C60.2727 85.3636 60.4545 85.5455 60.7273 85.5455C61.6364 85.4545 63 78 64.3636 78Z" fill="#153350"/>
<path fill-rule="evenodd" clip-rule="evenodd" d="M138.273 86.9091C136.727 86.9091 135.909 89.6364 134.364 89.7273C135.273 85.8182 139.182 83.7273 139.182 80.0909C139.182 75.9091 135.727 74.4545 134.273 73.5455C131.909 70.0909 130.182 67.3636 126.273 67.3636C124.636 67.3636 123.545 67.6364 122.455 67.6364C120.273 67.6364 119.545 66.8182 119.455 66.8182C119.455 66.8182 119.364 66.8182 119.364 67C119.364 70.0909 121 77 127.909 77C131.636 77 133.182 75.5454 134.091 75.5454C135 75.5454 138 76.5454 138 80.0909C138 82 136.455 84 135.909 84C135.364 84 134.818 83.0909 134.818 82.1818C134.818 81.1818 135.364 79.2727 135.364 78.0909C135.364 77.6364 135.273 77.4545 135 77.4545C134.455 77.4545 131.636 79.2727 131.636 81.4545C131.636 83.3636 134.455 84.5454 135.545 85.0909C134.455 86.8182 133.818 88 133.364 89.6364C133.364 88.3636 132.182 85.9091 131.818 84.8182C130.091 79.9091 129.455 79 125.727 78.5455C126.273 80.5455 132.636 85.2727 132.636 90.0909C132.636 90.3636 132.636 90.8182 132.545 91C130.636 85.3636 127.364 84 126.182 82.6364C124.273 80.4545 125.364 78.3636 122.273 77.1818C122.455 77.4545 122.545 77.8182 122.545 78.0909C122.545 79.1818 122 80.4545 122 81.3636C122 84.8182 125.909 83.7273 128.273 85.6364C130.545 87.4545 131.818 90.4545 132.727 93.8182C133.636 92.3636 134.182 90.5454 135.727 90.5454C136.727 90.5454 137.091 91.8182 137.091 92.8182V93.2727C138.636 91.9091 139.455 89.7273 139.455 88.2727C139.364 87.5454 139 86.9091 138.273 86.9091ZM132.091 74.0909C131.727 74.0909 131.182 73.9091 130.727 73.9091C129.636 73.9091 128.818 75.4545 128.273 75.4545C128.091 75.4545 128 75.2727 128 75.0909C128 74.4545 129.091 73.7273 129.091 73.2727C129.091 73 128.636 72.9091 128.455 72.9091C127.364 72.9091 125.818 74.4545 124.909 74.4545C124.727 74.4545 124.545 74.3636 124.545 74.1818C124.545 73.7273 125.727 73.1818 125.727 72.7273C125.727 72.2727 125.273 72.2727 124.909 72.2727C124.364 72.2727 123.273 72.5455 122.636 72.5455C122.273 72.5455 122 72.4545 122 72.1818C122 71.5455 124.091 71.9091 124.091 71.1818C124.091 70.8182 123.455 70.0909 123.455 69.7273C123.455 69.5454 123.636 69.4545 123.818 69.4545C124.545 69.4545 125.364 71.5454 126.182 71.5454C126.545 71.5454 126.636 71.2727 126.636 70.8182C126.636 70.3636 126.545 70.1818 126.545 69.8182C126.545 69.4545 126.727 69.3636 126.818 69.3636C127.364 69.3636 127.818 72.2727 129.364 72.2727C130 72.2727 129.545 70.4545 130.182 70.4545C130.545 70.4545 130.636 71 130.636 71.2727C130.818 73.1818 132.545 73.2727 132.545 74C132.455 73.9091 132.364 74.0909 132.091 74.0909Z" fill="#153350"/>
<path fill-rule="evenodd" clip-rule="evenodd" d="M110.364 69.8182C111.091 69.8182 111.636 70.3636 111.636 71C111.636 71.6364 111.091 72.1818 110.364 72.1818C109.727 72.1818 109.091 71.6364 109.091 71C109.091 70.3636 109.727 69.8182 110.364 69.8182ZM118.727 81.2727C118.091 81.2727 117.455 81.8182 117.455 82.4545C117.455 83.1818 118.091 83.6364 118.727 83.6364C119.455 83.6364 120 83.0909 120 82.3636C120 81.7273 119.455 81.2727 118.727 81.2727ZM114.546 79C113.273 79 112.273 80 112.273 81.1818C112.273 82.3636 113.273 83.3636 114.546 83.3636C115.818 83.3636 116.818 82.3636 116.818 81.1818C116.818 80 115.818 79 114.546 79ZM110.546 78C109.818 78 109.273 78.5454 109.273 79.2727C109.273 80 109.909 80.5454 110.546 80.5454C111.273 80.5454 111.818 80 111.818 79.2727C111.818 78.5454 111.273 78 110.546 78ZM118.546 80C119.364 80 120.091 79.3636 120.091 78.5455C120.091 77.7273 119.364 77.0909 118.546 77.0909C117.727 77.0909 117 77.7273 117 78.5455C117 79.2727 117.727 80 118.546 80ZM106.727 75.3636C105.727 75.3636 104.818 76.1818 104.818 77.1818C104.818 78.1818 105.636 79 106.727 79C107.727 79 108.636 78.1818 108.636 77.1818C108.546 76.1818 107.727 75.3636 106.727 75.3636ZM113.546 76.7273C113.546 77.4545 114.091 78 114.818 78C115.546 78 116.091 77.4545 116.091 76.7273C116.091 76 115.546 75.4545 114.818 75.4545C114.091 75.4545 113.546 76.0909 113.546 76.7273ZM111 77.0909C112.091 77.0909 113 76.2727 113 75.1818C113 74.0909 112.091 73.2727 111 73.2727C109.909 73.2727 109 74.0909 109 75.1818C109 76.1818 109.818 77.0909 111 77.0909ZM118.273 75.8182C119 75.8182 119.636 75.1818 119.636 74.4545C119.636 73.7273 119 73.0909 118.273 73.1818C117.546 73.1818 116.909 73.8182 116.909 74.5454C116.909 75.2727 117.546 75.8182 118.273 75.8182ZM107.273 74C108 74 108.546 73.4545 108.546 72.7273C108.546 72 108 71.4545 107.273 71.4545C106.546 71.4545 106 72 106 72.7273C105.909 73.4545 106.546 74 107.273 74ZM114.727 73.9091C115.909 73.9091 116.818 73 116.818 71.9091C116.818 70.8182 115.909 69.9091 114.727 69.9091C113.546 69.9091 112.636 70.8182 112.636 71.9091C112.636 73 113.546 73.9091 114.727 73.9091ZM116.273 69.1818C117 69.1818 117.546 68.6364 117.546 68C117.546 67.3636 117 66.8182 116.273 66.8182C115.546 66.8182 115 67.3636 115 68C115.091 68.7273 115.636 69.1818 116.273 69.1818Z" fill="#153350"/>
<path fill-rule="evenodd" clip-rule="evenodd" d="M79.5455 70.8182C80.3637 70.8182 81.8182 72.1818 82.1819 73.6364C82 73.6364 81.8182 73.5455 81.7273 73.5455C80.6364 73.5455 80.0909 74.5455 79.2728 76.2727C81.1819 75 82.9091 74 84.9091 74C86.6364 74 88 75 88 76.5455C88 77.1818 87.6364 77.9091 87.2728 78.6364C87 77.1818 85.8182 76.5455 83.7273 76.5455C82.5455 76.5455 81.091 76.7273 79.9091 77.1818C83.6364 77.7273 84.1819 79 84.1819 80.1818C84.1819 82.1818 82.091 83.1818 80.7273 83.8182C80.8182 83.2727 81 82.6364 81 82C81 80.8182 80.5455 79.3636 78.6364 78.0909C78.3637 79.3636 77.2728 80.1818 77.2728 81.1818C77.2728 81.5455 77.5455 81.7273 77.7273 81.7273C77.7273 82.2727 77.4546 83.9091 77.4546 84.3636C77.4546 85.1818 77.6364 85.3636 78.091 85.4545C78.3637 86.1818 78.3637 87.4545 78.5455 88.0909C78.6364 88.4545 78.9091 88.5455 79.1819 88.5455C79.4546 89.1818 79.8182 90.1818 80.3637 90.5455C80.4546 90.6364 80.6364 90.9091 80.6364 91.0909C80.6364 91.6364 79.7273 92.2727 79.1819 92.2727C79 92.2727 78.7273 92.1818 78.4546 91.5455C78.2728 91.0909 76.6364 90.0909 76.5455 89.5455C76.6364 89.4545 76.7273 89.2727 76.7273 89C76.7273 88.0909 75.2728 87.0909 75.2728 85.6364C75.4546 85.5455 75.6364 85.2727 75.6364 85C75.6364 84.1818 74.8182 82.6364 74.8182 81.5455C75.1819 81.5455 75.3637 81.5455 75.3637 81C75.4546 79.9091 75.6364 78.3636 76.6364 77.4545C76.3637 77.4545 76.091 77.3636 75.7273 77.3636C73.7273 77.3636 70.7273 78.4545 69.5455 81C69.4546 80.6364 69.4546 80.2727 69.4546 79.9091C69.4546 77.8182 70.7273 76.4545 71.7273 76C72.1819 75.8182 72.8182 75.7273 73.4546 75.7273C74.5455 75.7273 75.7273 75.9091 77 76.1818C75.9091 74.7273 74.1819 73.7273 72.7273 73.7273C72.091 73.7273 71.5455 73.9091 71.3637 74.4545C71.2728 74.1818 71.2728 73.7273 71.2728 73.3636C71.2728 71.8182 71.8182 70.9091 73.1819 70.9091C75.1819 70.9091 77 73.2727 78 75.4545V75.1818C78 72.0909 78.091 70.5455 79.3637 70.4545L79.5455 70.8182Z" fill="#153350"/>
<path fill-rule="evenodd" clip-rule="evenodd" d="M54.2727 76C54.2727 78.4545 55.0909 79.6364 56.4545 79.6364C57.5454 79.6364 59 78.9091 60.7273 77.4545C59.3636 77.7273 58.3636 77.9091 57.4545 77.9091C56.2727 77.9091 55.2727 77.4545 54.2727 76ZM63.7272 72.6364C62.9091 72.8182 61.3636 73.7273 61.3636 75.3636C61.3636 76.5455 62.2727 77.2727 63.4545 77.2727C64.0909 77.2727 64.5454 77.1818 64.8182 76.9091C63.9091 76 63.5454 75.0909 63.5454 74.0909C63.5454 73.4545 63.6363 73 63.7272 72.6364ZM66.5454 70C65.8182 70.8182 65 72.2727 65 73.7273C65 75.4545 66.0909 76.9091 67.8182 76.9091C69.4545 76.9091 70.2727 75.5455 70.2727 74.1818C70.3636 72 68.2727 70.4545 66.5454 70ZM55.4545 73.0909V73.5455C55.4545 75.0909 56.2727 75.9091 57.4545 75.9091C58.2727 75.9091 59.2727 75.4546 60.1818 74.3636C59.8182 74.4546 59.3636 74.4546 59 74.4546C57.6363 74.5455 56.2727 74.1818 55.4545 73.0909ZM62.1818 64.7273C61.0909 64.7273 59.7272 64.8182 58.2727 65.7273C55.3636 67.5455 55.7272 70.4546 55.2727 71.2727C55.1818 71.3636 55.1818 71.4546 55.1818 71.6364C55.1818 71.9091 55.5454 72.2727 55.8182 72.2727C56.0909 72.2727 56.2727 72.1818 56.3636 72.1818C57.1818 72.1818 58.0909 72.7273 59.4545 72.7273C60.2727 72.7273 61.1818 72.4545 62.2727 71.9091C64.7273 70.7273 65.6363 67.8182 65.6363 67.3636C65.6363 66.7273 65.0909 66.8182 64.7272 66.2727C64.2727 65.7273 64.4545 65.1818 64.1818 64.9091C64 64.7273 63.5454 64.7273 62.9091 64.7273H62.1818ZM60.1818 71.1818C59.0909 71.1818 57.8182 69.8182 57.8182 68.6364C57.8182 68 58.3636 67.1818 58.7272 67.1818C58.8182 67.1818 58.9091 67.2727 59 67.5455C59.1818 69.0909 60.2727 70 61.2727 70.4545C61.3636 70.5455 61.4545 70.5455 61.4545 70.6364C61.3636 70.9091 60.7272 71.1818 60.1818 71.1818ZM64.1818 68.1818C64.1818 68.6364 63.9091 69.1818 63.3636 69.1818C62.1818 69.1818 61.2727 67.4545 61.1818 66.4545C61.1818 65.8182 61.5454 65.8182 62.0909 65.8182C62.3636 65.8182 62.4545 65.8182 62.6363 65.9091C62.9091 66.0909 62.9091 66.7273 63.2727 67.1818C63.5454 67.5455 64.1818 67.9091 64.1818 68.1818ZM66.7273 66.7273C66.7273 67.4546 67.3636 68 68.0909 68C68.8182 68 69.4545 67.4546 69.4545 66.7273C69.4545 66 68.8182 65.4545 68.0909 65.4545C67.3636 65.3636 66.7273 66 66.7273 66.7273ZM66.2727 65.0909C67 65.0909 67.6363 64.5455 67.6363 63.8182C67.6363 63.0909 67 62.5455 66.2727 62.5455C65.5454 62.5455 64.9091 63.0909 64.9091 63.8182C65 64.4545 65.5454 65.0909 66.2727 65.0909ZM57.0909 64.4546C58.2727 64.4546 59.2727 63.7273 59.2727 63.7273C57.2727 63.1818 56.1818 61.8182 56.1818 59.9091V59.3636C54.9091 59.9091 54.3636 60.9091 54.3636 61.9091C54.4545 63.4545 55.6363 64.4546 57.0909 64.4546ZM63 63C63.1818 62.4546 63.2727 61.8182 63.2727 61.0909C63.2727 59.5455 62.5454 57.1818 60.1818 57.1818C58.8182 57.1818 57.9091 58.1818 57.9091 59.3636C58 62 60.7273 63 63 63Z" fill="#153350"/>
<path fill-rule="evenodd" clip-rule="evenodd" d="M137.727 62.1818C136.273 65.0909 132.636 65.7273 131.454 65.5454C131.818 68.5454 136.273 72.5454 137.454 72.4545C138.273 72.3636 138.545 68.5454 138.545 65.5454C138.545 63.8182 138.636 62.4545 137.727 62.1818ZM137.818 59.3636C137.818 58.2727 137.364 57.4545 136.091 57.2727C136.273 57.5454 136.364 57.8182 136.364 58.2727C136.364 60 133.818 61.9091 131 61.9091C130 61.9091 129.636 62.6364 129.727 63C129.727 63.9091 130.545 64.2727 131.727 64.2727C134.909 64.1818 137.818 61.6364 137.818 59.3636Z" fill="#153350"/>
<path fill-rule="evenodd" clip-rule="evenodd" d="M131 60.7273C132.273 60.7273 135 59.6364 135 58.1818C135 57.7273 134.818 57.2727 134.091 57.2727C133.091 57.2727 131.727 58.2727 130.364 58.2727C129.909 58.2727 129.364 58.2727 128.818 58.0909C129.364 58.4545 129.273 59.3636 129.545 60C130 60.7273 130.545 60.7273 131 60.7273Z" fill="#153350"/>
<path fill-rule="evenodd" clip-rule="evenodd" d="M113.909 61.4545C113.909 64.3636 111.909 65.5455 110.091 65.5455C109.636 65.5455 109.273 65.4545 108.909 65.2727C109.273 64.9091 109.636 64.3636 109.636 64C109.636 63.7273 109.455 63.6364 109.182 63.6364C109 63.6364 108.545 63.7273 108.182 63.7273C107.273 63.7273 106.545 63.3636 105.727 62.5455C105.182 63.3636 104.909 64.4545 104.909 65.5455C104.909 67.2727 105.545 69 106.273 69.0909C106.636 69.0909 106.636 67.9091 107.273 67.9091C107.455 67.9091 108.182 68.4545 109.727 68.4545C112 68.4545 114.545 67.0909 114.545 63.5455C114.455 63.0909 114.273 62 113.909 61.4545Z" fill="#153350"/>
<path fill-rule="evenodd" clip-rule="evenodd" d="M108.727 59.6364C109.182 59.6364 110.091 59.8182 110.364 60.2727C110 60.4545 109.636 60.9091 109.636 61.2727C109.636 61.4545 109.727 61.6364 109.909 61.7273C110.727 62.0909 111.182 62.7273 111.454 63.2727C112.909 62.4545 113.454 60.1818 113.454 58.9091C113.454 58.5455 113.454 58 113.091 58C112.818 58 112.545 58.3636 112.182 58.3636C111.909 58.3636 111.091 57.2727 109.091 57.2727C106.818 57.2727 105.818 59 105.818 60.4545C105.818 60.8182 105.909 61.2727 106 61.5454C106.454 60.6364 107.364 59.6364 108.727 59.6364Z" fill="#153350"/>
<path fill-rule="evenodd" clip-rule="evenodd" d="M85.7272 61.5454C84.0909 61.5454 82.6363 62.9091 81.5454 64.7273C81.6363 64.3636 81.6363 64 81.6363 63.6364C81.6363 61.0909 80.2727 58.9091 77.8181 58.9091C75.8181 58.9091 73.909 60.0909 73.1818 62.4545C73.3636 62.2727 74.0908 61.8182 74.6363 61.8182C75.2727 61.8182 75.4545 62.3636 75.4545 63.2727C75.4545 63.8182 75.3636 64.5454 75.0908 65.1818C74.7272 66.2727 73.9999 66.5454 73.6363 66.5454C72.0909 66.5454 72.8181 63.9091 71.9999 63.9091C71.3636 63.9091 71.1818 65.3636 71.1818 65.9091C71.1818 67.7273 72.3636 69.6364 74.9999 69.6364C77.8181 69.6364 79.3636 68.2727 80.9999 66.5454C81.3636 68.4545 82.3636 71.8182 85.1818 71.8182C86.7272 71.8182 87.8181 70.5455 87.909 69C87.7272 69.1818 87.4545 69.3636 87.0909 69.3636C86.5454 69.3636 86.3636 68.5454 86.3636 67.8182C86.3636 66.6364 86.7272 65.3636 87.2727 65.3636C87.5454 65.3636 87.7272 65.5454 87.8181 66.4545C87.909 67.0909 87.8181 67.9091 88.2727 67.9091C88.7272 67.9091 88.909 66.5455 88.909 65.7273C88.8181 63.3636 87.8181 61.4545 85.7272 61.5454ZM76.3636 67.7273C76.0909 67.7273 75.9999 67.4545 75.9999 67.2727C75.9999 66 77.3636 60.3636 78.3636 60.3636C78.5454 60.3636 78.6363 60.5455 78.6363 60.8182C78.6363 61.8182 77.4545 67.7273 76.3636 67.7273ZM80.5454 65.2727C79.7272 66.1818 79.2727 66.6364 78.909 66.6364C78.7272 66.6364 78.5454 66.2727 78.5454 65.9091C78.5454 65.2727 78.9999 62.6364 79.9999 62.6364C80.3636 62.6364 80.6363 63.3636 80.6363 64C80.6363 64.5455 80.6363 64.9091 80.5454 65.2727ZM82.4545 67.5455C82.1818 67.5455 81.909 67 81.909 65.9091C82.4545 65 82.7272 64.6364 83.0909 64.6364C83.1818 64.6364 83.3636 64.7273 83.3636 65.2727C83.2727 66.4545 82.8181 67.5455 82.4545 67.5455ZM84.0909 69.4545C83.909 69.4545 83.7272 69.1818 83.7272 68.4545C83.7272 66.7273 84.8181 63.5455 85.4545 63.5455C85.6363 63.5455 85.7272 64 85.7272 64.4545C85.8181 66.3636 84.909 69.4545 84.0909 69.4545Z" fill="#153350"/>
<path fill-rule="evenodd" clip-rule="evenodd" d="M125.818 57.8182C125.182 57.8182 124.182 58.5455 123.455 58.5455C122.455 58.5455 122.727 57.1818 121.636 57.1818C121.364 57.1818 121.091 57.2727 120.818 57.4546C118.546 58.6364 116.727 58.1818 116.364 58.4546C116.273 58.5455 116.182 58.5455 116.182 58.8182C116.182 61.3636 118.727 65.1818 122.909 65.1818C125.818 65.1818 128.182 64.1818 128.182 62.4545C128.091 61 126.727 57.8182 125.818 57.8182ZM123.182 62.7273C120.818 62.7273 119.364 61.3636 119.364 60.5455C119.364 60.4545 119.455 60.3636 119.546 60.3636C119.909 60.3636 120.909 60.9091 122.273 61.0909C123.818 61.3636 124.636 61.3636 125.091 61.3636C125.546 61.3636 125.727 61.4546 125.727 61.6364C125.636 62.0909 124.546 62.7273 123.182 62.7273Z" fill="#153350"/>
<path fill-rule="evenodd" clip-rule="evenodd" d="M138.545 42.5455C136.909 42.5455 136.727 42.0909 135.636 42.0909C134.364 42.0909 133.455 43 133.455 44.3636C133.455 44.8182 133.636 45.5455 133.636 46.4545C133.636 47.5455 133.455 48.6364 132.455 48.6364C131.545 48.6364 131.182 48 131.182 47.2727C131.182 46 131.818 45.0909 131.818 44.2727C131.818 42.7273 130 42.2727 128 42.2727C125.636 42.2727 123.091 42.9091 123.091 43.2727C123.091 43.8182 126.455 43.4545 128.909 46.6364C127.364 46.6364 124.364 47.3636 124.364 47.8182C124.364 48.3636 129.818 48.9091 129.818 51.1818C129.818 52.6364 128.636 52.8182 128.182 52.8182C126.364 52.8182 125.455 50.9091 125 50.9091C124.909 50.9091 124.727 51 124.727 51.1818C124.727 51.4545 125 52.2727 125 53.0909C125 55.1818 122.727 55.3636 122.727 55.8182C122.727 56 122.818 56 123.091 56.0909C124.727 56.3636 126.455 56.4545 128 56.4545C133.818 56.4545 138.455 54.6364 138.455 49.5455C138.455 46.7273 137.545 45.8182 137.545 44.4546C137.364 44 137.727 43 138.545 42.5455ZM130.455 53.6364H129.273C133 53 135.091 50.8182 135.091 47.9091C135.909 48.1818 136.455 49 136.455 49.9091C136.364 51.6364 134.818 53.6364 130.455 53.6364ZM135.636 44.8182C135.182 44.8182 134.818 44.4546 134.818 44C134.818 43.5455 135.182 43.1818 135.636 43.1818C136.091 43.1818 136.455 43.5455 136.455 44C136.455 44.4546 136.091 44.8182 135.636 44.8182Z" fill="#153350"/>
<path fill-rule="evenodd" clip-rule="evenodd" d="M115.909 41.4546C113.727 41.4546 112.091 42.5455 111.182 42.5455C110.636 42.5455 109.909 41.2727 109.455 41.2727C109.273 41.2727 109.091 41.6364 109.091 42.1818V42.3636C109.091 42.8182 109 43.6364 108.727 43.6364C107.909 43.6364 104.818 41.4546 104.818 42.1818C104.818 42.9091 106.909 45.1818 106.909 45.7273C106.909 46.2727 104.909 46.8182 104.909 47.2727C104.909 48 107.091 48.0909 107.091 49C107.091 49.9091 104.818 50.6364 104.818 51.2727C104.818 51.8182 107.091 51.4546 107.091 52.0909C107.091 52.7273 105.455 55 105.455 55.6364C105.455 55.8182 105.455 55.8182 105.636 55.8182C106.273 55.8182 108.182 53.7273 108.636 53.7273C109.182 53.7273 109.273 55 109.364 55.7273C109.455 56.0909 109.455 56.1818 109.636 56.1818C110 56.1818 110.636 54.7273 111.091 54.7273C111.727 54.7273 113.364 56.4546 116.182 56.4546C120.182 56.4546 123.909 53.7273 123.909 48.9091C124 44.1818 120.546 41.4546 115.909 41.4546ZM110.364 51.8182C110.273 51.8182 110.182 51.7273 110.182 51.5455L110.091 50.2727C110.091 50.1818 110 50 109.818 50H108.455C108.273 50 108.182 50 108.182 49.9091C108.182 49.6364 109.546 48.7273 109.546 48.5455C109.546 48.1818 108.273 47.5455 108.273 47.0909C108.273 47 108.364 47 108.455 47C108.818 47 109.455 47.0909 109.909 47.0909C110.364 47.0909 110.364 45.2727 110.727 45.2727C111 45.2727 111.364 47 111.727 47C112.182 47 112.909 46.5455 113.273 46.5455C113.364 46.5455 113.364 46.5455 113.364 46.6364C113.364 46.8182 112.546 47.7273 112.546 48C112.546 48.2727 114.364 48.6364 114.364 48.9091C114.364 49.2727 112.455 49.1818 112.455 49.4546C112.455 49.6364 113.182 50.5455 113.182 50.9091C113.182 51 113.182 51 113.091 51C112.818 51 111.818 50.5455 111.546 50.5455C111.182 50.5455 110.636 51.8182 110.364 51.8182ZM116 54.6364C113.727 54.6364 112.182 53.5455 112.182 52.9091C112.182 52.6364 112.364 52.4546 112.636 52.4546C113.364 52.4546 114.909 53.5455 115.455 53.5455C115.546 53.5455 115.727 53.4546 115.727 53.2727C115.727 52.7273 115.182 51.7273 115.182 51.2727C115.182 51.1818 115.273 51.0909 115.455 51.0909C116.364 51.0909 117.636 51.4546 118.364 51.4546C118.636 51.4546 118.636 51.3636 118.636 51.1818C118.636 50.4546 116.455 49.0909 116.455 48.6364C116.455 48.2727 119.091 47.6364 119.091 47.0909C119.091 46.4546 115.455 46.9091 115.455 46.2727C115.455 45.8182 116.182 45.0909 116.182 44.7273C116.182 44.5455 116.091 44.5455 115.818 44.5455C115.546 44.5455 113.909 45.1818 113.273 45.1818C112.909 45.1818 112.546 45.0909 112.546 44.6364C112.546 43.9091 113.818 43.0909 115.818 43.0909C119.091 43.0909 121 45.2727 121 48.9091C121.091 53.4546 117.818 54.6364 116 54.6364Z" fill="#153350"/>
<path fill-rule="evenodd" clip-rule="evenodd" d="M81.4546 50.7273C82.7273 50.7273 86.5455 52.4545 88.2728 52.4545C88.9091 52.4545 89.2728 52.0909 89.2728 51.7273C89.2728 49.7273 83.9091 46.1818 83.8182 44.7273C83.8182 44.5455 83.9091 44.4545 84 44.3636C84.9091 43.3636 88.7273 42.7273 88.7273 41.9091C88.7273 41.4545 87.9091 41.4545 87.5455 41.4545C84.4546 41.4545 80 42.5455 80 43.6364C80 44.7273 84 47.4545 84 48.8182C84 49.1818 83.7273 49.2727 83.3637 49.2727C82.2728 49.2727 79.8182 47.9091 78.6364 47.9091C78.0909 47.9091 77.9091 48.2727 77.9091 48.8182C77.9091 50.3636 79.8182 53.3636 79.8182 54.2727C79.8182 54.3636 79.8182 54.5455 79.6364 54.5455C79 54.5455 76.2728 51.2727 75.2728 51.2727C74.9091 51.2727 74.9091 51.7273 74.9091 52.4545V53.5455C74.9091 54.2727 74.9091 54.7273 74.5455 54.7273C73.7273 54.7273 73.2728 52.3636 72.4546 52.3636C71.6364 52.3636 71.4546 56.6364 70.6364 56.6364C69.6364 56.6364 70.4546 52 69.5455 52C68.5455 52 67.3637 55.0909 66.6364 55.0909C66.3637 55.0909 66.2728 54.8182 66.2728 54.6364C66.2728 53.7273 66.8182 52.1818 66.8182 51.2727C66.8182 50.8182 66.7273 50.5455 66.2728 50.5455C65.2728 50.5455 63 52.1818 62.1819 52.1818C62.0909 52.1818 61.9091 52.0909 61.9091 52C61.9091 51.1818 65.5455 48.7273 65.5455 47.6364C65.5455 46.5455 60.5455 47.2727 60.5455 46C60.5455 45 64.0909 43.9091 64.0909 42.8182C64.0909 41.9091 59.9091 41.4545 58.2728 41.4545C56.3637 41.4545 55.2728 41.7273 55.2728 42.2727C55.2728 43.0909 59.7273 43.3636 59.7273 44.0909C59.7273 44.8182 55.0909 46.7273 55.0909 47.8182C55.0909 48.8182 61.5455 47.9091 61.5455 48.9091C61.5455 50 55.9091 54.8182 55.9091 56.4545C55.9091 56.8182 56.1819 57 56.5455 57C58.2728 57 62.7273 53.7273 63.9091 53.7273C64.3637 53.7273 64.3637 54.2727 64.3637 54.7273C64.3637 55.5455 64.0909 56.9091 64.0909 57.8182C64.0909 58.5455 64.2728 59.0909 64.9091 59.0909C66.0909 59.0909 67.2728 57 68.0909 57C69.1819 57 68.5455 63 70.0909 63C71.4546 63 72 56.4545 72.8182 56.4545C73.6364 56.4545 74.3637 58.3636 75.1818 58.3636C76.1818 58.3636 75.7273 55.0909 76.7273 55.0909C77.9091 55.0909 81.1819 59 82.7273 59C83.1819 59 83.3637 58.6364 83.3637 58.1818C83.3637 56.4545 80.9091 52.5455 80.9091 51.2727C81 50.8182 81.0909 50.7273 81.4546 50.7273Z" fill="#153350"/>
<path fill-rule="evenodd" clip-rule="evenodd" d="M83.5454 53C83.4545 53 83.3636 53.0909 83.3636 53.1818C83.3636 54.3636 87.5454 59.9091 88.2727 59.9091C88.9091 59.9091 89.4545 58.7273 89.4545 57.8182C89.4545 57.5455 89.3636 57.2727 89.2727 57.0909C88.6363 56.1818 84.4545 53 83.5454 53ZM59.0909 49.8182C59.0909 49.5455 58.5454 49.4545 58.0909 49.4545C57.3636 49.4545 56.3636 49.6364 55.9091 50C55.5454 50.2727 55.2727 51.1818 55.2727 51.8182C55.2727 52.1818 55.3636 52.5455 55.7273 52.5455C56.5454 52.6364 59.0909 50.4545 59.0909 49.8182ZM65 45.7273C65.7273 45.7273 66.9091 45.3636 67.7273 45.3636C68.1818 45.3636 68.6363 45.4545 68.6363 45.9091C68.6363 46.7273 66.8182 48.1818 66.8182 48.8182C66.8182 49 67 49.0909 67.1818 49.0909C67.8182 49.0909 69 47.4545 70 47.4545C71.7273 47.4545 70.6363 51.1818 71.5454 51.1818C72.5454 51.1818 72.0909 47.5455 73.5454 47.5455C74.7273 47.5455 75.5454 50.0909 76.3636 50.0909C76.5454 50.0909 76.7273 49.9091 76.7273 49.7273C76.7273 49 75.7273 47.6364 75.7273 46.7273C75.7273 46.1818 76.0909 45.9091 76.6363 45.9091C77.3636 45.9091 78.4545 46.3636 79 46.3636C79.1818 46.3636 79.3636 46.2727 79.3636 46.0909C79.3636 45.2727 76.4545 44.4545 76.4545 43.4545C76.4545 42.4545 78.0909 42.4545 78.0909 42C78.0909 41.8182 77.0909 41.6364 75.7273 41.6364C73.5454 41.6364 73.9091 43.3636 72.1818 43.3636C70.4545 43.3636 70.9091 41.5455 68.7273 41.5455C67.3636 41.5455 66.1818 41.8182 66.1818 42.0909C66.1818 42.4545 67.7273 42.2727 67.7273 43.3636C67.7273 44.5455 64.3636 44.8182 64.3636 45.5455C64.3636 45.6364 64.6363 45.7273 65 45.7273ZM85.8182 45.2727C85.8182 45.8182 87.9091 47.0909 88.8182 47.0909C89.3636 47.0909 89.5454 46.3636 89.5454 45.5455C89.5454 44.5455 89.0909 44.5455 88.2727 44.5455C87.1818 44.5455 85.8182 44.8182 85.8182 45.2727Z" fill="#153350"/>
</g>
<defs>
<clipPath id="clip0_59_743">
<rect width="200" height="200" fill="white"/>
</clipPath>
</defs>
</svg>
